# xmcd
#
# Track frame offsets:
#	150
#	51208
#	93585
#	139823
#
# Disc length: 2511 seconds
#
# Revision: 0
# Processed by: cddbd v1.5.1PL0 Copyright (c) Steve Scherf et al.
# Submitted via: EasyCDDAExtractor 4.6.9.1
#
DISCID=3309cd04
DTITLE=Kazik Robo and Salco band - Megamixy
DYEAR=2004
DGENRE=Dance
TTITLE0=Mix 1
TTITLE1=Mix 2
TTITLE2=Mix 3
TTITLE3=Mix 4
EXTD=
EXTT0=Zahod starosti\nJulia si carovna\nVzdialena\nCo sa mi moze stat\nZabudaj
EXTT0=, zabudaj\nPlavovlaska\nDiridonda\nOtvarajte kasino\nNalej mi vina, Malv
EXTT0=ina\nCardas dvoch srdc
EXTT1=Elena\nUcitelka tanca\nHalo tam\nVonia kakao\nSmoliar\nLaska ma parik kr
EXTT1=idel\nCeresne\nToto olo patri nam
EXTT2=Boby\nNervozna familia\nLaska moja, hviezdy sa ta boja\nVeronika\nV doli
EXTT2=nach\nMarina\nPrimasovo srdce
EXTT3=Papousek kakadu\nCoz takhle sdat si spenat\nTuhle rundu platim ja\nKavu 
EXTT3=si osladim\nPodvod\nDej mi vic sve lasky\nZrcadlo\nVed me dal cesto ma\n
EXTT3=Whisky, to je moje gusto\nLasko ma, ja stunu\nJa uz du\nMasinka\nNeni nu
EXTT3=tno
PLAYORDER=
